<svg xmlns="http://www.w3.org/2000/svg" xmlns:xlink="http://www.w3.org/1999/xlink" width="128" height="44" fill="none"><style>.B{fill-rule:evenodd}</style><g fill="#000"><path d="M117.807.538L9.028.54l-.983.014a14.09 14.09 0 00-2.143.19c-.708.12-1.393.347-2.033.673s-1.224.755-1.73 1.265S1.2 3.777.876 4.42a7.1 7.1 0 00-.669 2.042c-.12.7-.183 1.428-.192 2.148L0 9.6v24.804l.016.99c.01.72.073 1.438.192 2.148s.343 1.4.67 2.043a6.66 6.66 0 001.26 1.732 6.71 6.71 0 001.731 1.265c.64.327 1.326.555 2.033.677a14.35 14.35 0 002.143.19l.983.01 1.17.002 109.754-.014c.716-.01 1.432-.072 2.14-.2a7.26 7.26 0 002.041-.677 6.73 6.73 0 001.73-1.265c.51-.507.936-1.092 1.264-1.732s.546-1.332.662-2.043.186-1.428.198-2.148l.005-.99.008-1.174-.013-24.618a14.46 14.46 0 00-.198-2.148 7.13 7.13 0 00-.662-2.042 6.928 6.928 0 00-2.994-3.004 7.22 7.22 0 00-2.041-.673 15.341 15.341 0 00-2.14-.2l-.987-.014-1.16-.002z"/><path d="M9.037 42.522c-.326 0-.644-.004-.967-.01-.67-.01-1.338-.067-2-.175a6.28 6.28 0 01-1.772-.588 5.78 5.78 0 01-1.494-1.091c-.443-.436-.812-.943-1.092-1.5s-.48-1.16-.58-1.778a14.73 14.73 0 01-.178-2.012l-.016-.98V9.598l.016-.96c.008-.673.067-1.345.177-2.01a6.19 6.19 0 01.581-1.784c.28-.556.646-1.062 1.086-1.5s.946-.812 1.5-1.097 1.153-.48 1.768-.584a13.42 13.42 0 012.006-.176l.965-.013 110.905.014a13.19 13.19 0 011.987.174 6.343 6.343 0 011.788.588 6.047 6.047 0 012.583 2.597 6.16 6.16 0 01.572 1.769c.11.67.174 1.346.186 2.025l.003.955.01 1.172-.013 24.6a13.57 13.57 0 01-.183 1.99 6.15 6.15 0 01-.577 1.792 5.88 5.88 0 01-1.087 1.487 5.778 5.778 0 01-1.496 1.097 6.638 6.638 0 01-1.785.6c-.66.108-1.33.167-2 .175l-.96.01-1.16.002-108.774-.002z"/></g><g fill="#fff"><path d="M26.498 22.33a5.317 5.317 0 012.52-4.456 5.41 5.41 0 00-4.27-2.315c-1.796-.2-3.538 1.078-4.453 1.078-.933 0-2.342-1.06-3.86-1.028a5.685 5.685 0 00-4.785 2.927c-2.07 3.593-.526 8.874 1.456 11.778.992 1.422 2.15 3 3.666 2.955 1.484-.062 2.038-.95 3.83-.95 1.774 0 2.294.95 3.84.913 1.592-.026 2.595-1.43 3.552-2.864a11.79 11.79 0 001.624-3.318 5.118 5.118 0 01-3.123-4.72zm-2.923-8.683a5.24 5.24 0 001.192-3.746 5.3 5.3 0 00-3.43 1.78 4.99 4.99 0 00-1.223 3.607 4.38 4.38 0 003.462-1.642z"/><path d="M40.2 29.665h5.063l1.215 3.602h2.18L43.854 19.94h-2.228L36.83 33.267h2.145l1.216-3.602zM44.73 28h-4.013l1.98-5.846h.055L44.73 28zm10.234 5.37c2.43 0 4.042-1.94 4.042-4.96 0-3-1.62-4.96-4.078-4.96a3.436 3.436 0 00-3.084 1.718h-.036v-1.616h-1.924v12.93h1.988V31.67h.046a3.28 3.28 0 003.047 1.7zm-.557-8.22c1.546 0 2.56 1.293 2.56 3.26 0 1.985-1.013 3.27-2.56 3.27-1.52 0-2.54-1.3-2.54-3.27 0-1.94 1.022-3.26 2.54-3.26zm11.213 8.22c2.43 0 4.04-1.94 4.04-4.96 0-3-1.62-4.96-4.078-4.96a3.436 3.436 0 00-3.084 1.718h-.037v-1.616h-1.92v12.93h1.988V31.67h.046a3.28 3.28 0 003.047 1.7zm-.56-8.22c1.546 0 2.56 1.293 2.56 3.26 0 1.985-1.013 3.27-2.56 3.27-1.52 0-2.54-1.3-2.54-3.27 0-1.94 1.022-3.26 2.54-3.26z" class="B"/><path d="M76.7 29.554c.147 1.322 1.427 2.2 3.176 2.2 1.675 0 2.88-.868 2.88-2.06 0-1.034-.727-1.654-2.448-2.078l-1.722-.416c-2.44-.6-3.57-1.735-3.57-3.592 0-2.3 1.997-3.878 4.833-3.878 2.807 0 4.73 1.58 4.796 3.878h-2.007c-.12-1.33-1.216-2.133-2.817-2.133s-2.697.812-2.697 1.994c0 .942.7 1.497 2.412 1.92l1.463.36c2.725.647 3.858 1.745 3.858 3.694 0 2.493-1.98 4.055-5.128 4.055-2.946 0-4.935-1.525-5.063-3.935H76.7zm12.457-8.3v2.3H91v1.58h-1.842v5.356c0 .832.37 1.22 1.178 1.22a6.19 6.19 0 00.654-.046v1.57a5.38 5.38 0 01-1.104.092c-1.96 0-2.725-.74-2.725-2.623v-5.57h-1.408v-1.58h1.408v-2.3h1.997z"/><path d="M96.66 23.432c-2.798 0-4.593 1.92-4.593 4.978 0 3.065 1.777 4.978 4.593 4.978s4.595-1.912 4.595-4.978c0-3.057-1.787-4.978-4.595-4.978zm.002 1.642c1.61 0 2.57 1.238 2.57 3.335 0 2.105-.958 3.334-2.57 3.334s-2.568-1.228-2.568-3.334c0-2.087.957-3.335 2.568-3.335z" class="B"/><path d="M102.894 23.552h1.895v1.654h.046a2.31 2.31 0 012.33-1.755c.23-.001.457.024.68.075V25.4c-.29-.09-.59-.13-.893-.12a2 2 0 00-1.548.64 2.01 2.01 0 00-.524 1.596v5.763h-1.987v-9.715z"/><path d="M112.834 33.387c2.2 0 3.903-1.2 4.17-2.974h-1.887a2.19 2.19 0 01-2.237 1.366 2.514 2.514 0 01-1.92-.786 2.54 2.54 0 01-.684-1.966v-.12h6.84v-.683c0-2.946-1.685-4.792-4.364-4.792-2.724 0-4.482 1.977-4.482 5.024 0 3.038 1.748 4.932 4.565 4.932zm2.292-5.87h-4.842a2.465 2.465 0 01.72-1.748 2.45 2.45 0 011.745-.717 2.324 2.324 0 011.725.712 2.34 2.34 0 01.651 1.754zM42.716 10.8a2.82 2.82 0 00-2.252-.878H38.16v6.403h2.305c1.9 0 3.003-1.176 3.003-3.22a2.84 2.84 0 00-.751-2.304zm-2.362 4.622H39.15V10.82h1.203a2.01 2.01 0 011.591.647c.407.443.596 1.046.514 1.643a2.02 2.02 0 01-.506 1.654 2.01 2.01 0 01-1.6.65zm5.3-3.675a2.29 2.29 0 00-1.068 2.163 2.29 2.29 0 001.067 2.167c.737.46 1.67.46 2.4 0a2.29 2.29 0 001.067-2.167 2.29 2.29 0 00-1.068-2.163 2.27 2.27 0 00-2.406 0zm1.204.5c.823 0 1.292.613 1.292 1.66s-.47 1.664-1.292 1.664-1.3-.608-1.3-1.664c0-1.047.465-1.66 1.3-1.66z" class="B"/><path d="M55.17 16.31h-.986l-.995-3.56h-.075l-.99 3.56h-.977l-1.328-4.832h.964l.863 3.687h.07l1-3.687h.912l1 3.687h.075l.86-3.687h.95L55.17 16.31z"/><use xlink:href="#B"/><path d="M63.21 9.593h.95v6.718h-.95V9.593z"/><path d="M66.547 11.737a2.29 2.29 0 00-1.069 2.163c-.084.867.33 1.707 1.067 2.167s1.67.46 2.4 0a2.29 2.29 0 001.067-2.167 2.29 2.29 0 00-1.069-2.163 2.27 2.27 0 00-2.407 0zm1.204.5c.823 0 1.292.613 1.292 1.66s-.47 1.664-1.292 1.664-1.3-.608-1.3-1.664c0-1.047.465-1.66 1.3-1.66zm5.07 1.268c-1.146.07-1.8.573-1.8 1.442a1.46 1.46 0 00.483 1.08 1.45 1.45 0 001.123.366 1.62 1.62 0 001.447-.759h.075v.68h.915v-3.302c0-1.02-.68-1.624-1.9-1.624-1.093 0-1.87.532-1.968 1.362h.92c.106-.342.473-.537 1.004-.537.65 0 .986.288.986.8v.417l-1.305.075zm1.308.624v.404a1.14 1.14 0 01-.4.793 1.13 1.13 0 01-.847.263c-.517 0-.893-.253-.893-.688 0-.426.3-.652.964-.697l1.176-.075zm4.192-2.726c-1.217 0-2 .967-2 2.494s.774 2.498 2 2.498a1.67 1.67 0 001.513-.843h.075v.764h.9v-6.72h-.95v2.654h-.07a1.586 1.586 0 00-1.477-.848zm.268 4.135c-.805 0-1.287-.617-1.287-1.642 0-1.017.487-1.637 1.287-1.637s1.296.634 1.296 1.642-.495 1.637-1.296 1.637zm7.23-3.8a2.29 2.29 0 00-1.068 2.163 2.29 2.29 0 001.067 2.167c.738.46 1.67.46 2.4 0a2.29 2.29 0 001.067-2.167 2.29 2.29 0 00-1.068-2.163 2.27 2.27 0 00-2.406 0zm1.206.5c.823 0 1.292.613 1.292 1.66s-.47 1.664-1.292 1.664-1.3-.608-1.3-1.664c0-1.047.465-1.66 1.3-1.66z" class="B"/><use xlink:href="#B" x="32.966"/><path d="M100.03 10.277v1.225h1.043v.803h-1.043V14.8c0 .506.208.728.68.728a3.15 3.15 0 00.362-.022v.794a3.1 3.1 0 01-.517.049c-1.057 0-1.478-.373-1.478-1.305v-2.73h-.765v-.803h.765v-1.225h.952zm2.34-.684h.942v2.663h.076a1.48 1.48 0 011.468-.866 1.58 1.58 0 011.252.51 1.59 1.59 0 01.407 1.292v3.12h-.952v-2.884c0-.772-.358-1.163-1.03-1.163a1.156 1.156 0 00-.9.33 1.13 1.13 0 00-.322.895v2.822h-.95v-6.72z"/><path d="M109.97 16.41c.94.102 1.82-.487 2.087-1.398h-.915c-.228.4-.68.642-1.146.586a1.27 1.27 0 01-.946-.408 1.28 1.28 0 01-.337-.977v-.053h3.402v-.333c0-1.517-.81-2.436-2.15-2.436a2.22 2.22 0 00-1.685.754 2.238 2.238 0 00-.536 1.77 2.2 2.2 0 00.537 1.764c.43.48 1.046.747 1.688.73zm1.177-2.957h-2.433a1.24 1.24 0 01.36-.89 1.23 1.23 0 01.887-.362 1.16 1.16 0 01.869.363 1.17 1.17 0 01.317.889z" class="B"/></g><defs><path id="B" d="M57.606 11.48h.915v.768h.07a1.44 1.44 0 011.437-.861c.475-.036.94.147 1.264.496s.473.828.403 1.3v3.128h-.95v-2.89c0-.777-.336-1.163-1.04-1.163a1.102 1.102 0 00-.855.347 1.11 1.11 0 00-.295.877v2.827h-.95V11.48z"/></defs></svg>